<?xml version="1.0" encoding="UTF-8" standalone="no"?>
<!-- Uploaded to: SVG Repo, www.svgrepo.com, Generator: SVG Repo Mixer Tools -->

<svg
   width="800"
   height="800"
   viewBox="0 0 24 24"
   fill="none"
   version="1.1"
   id="svg4"
   xml:space="preserve"
   xmlns="http://www.w3.org/2000/svg"
   xmlns:svg="http://www.w3.org/2000/svg"><defs
     id="defs4" /><path
     opacity="0.1"
     d="m 21,12 c 0,4.9706 -4.0294,9 -9,9 -4.97056,0 -9,-4.0294 -9,-9 0,-4.97056 4.02944,-9 9,-9 4.9706,0 9,4.02944 9,9 z"
     fill="#323232"
     id="path1"
     style="display:inline;opacity:1;fill:#ef4036;fill-opacity:1" /><path
     style="opacity:1;fill:#ffffff;fill-opacity:1;stroke:#ffffff;stroke-width:0.307548;stroke-dasharray:none;stroke-opacity:1"
     d="M 2.8968595,13.421135 C 9.3202614,10.183056 15.569927,9.9300642 21.230185,11.57316 21.947735,19.545494 7.7614808,26.209572 2.8968595,13.421135 Z"
     id="path5" /><path
     d="m 21,12 c 0,4.9706 -4.0294,9 -9,9 -4.97056,0 -9,-4.0294 -9,-9 0,-4.97056 4.02944,-9 9,-9 4.9706,0 9,4.02944 9,9 z"
     stroke="#323232"
     stroke-width="2"
     id="path2"
     style="display:inline;stroke:#58585a;stroke-width:2.00001;stroke-dasharray:none;stroke-opacity:1" /><path
     d="M 12.02974,16.760509 V 6.7041753"
     stroke="#323232"
     stroke-width="2"
     stroke-linecap="round"
     stroke-linejoin="round"
     id="path3"
     style="display:inline;stroke:#58585a;stroke-width:2.62926;stroke-dasharray:none;stroke-opacity:1" /><path
     d="m 7.9420936,12.989384 3.9691044,3.661762 v 0 c 0.0654,0.06034 0.171681,0.06034 0.237084,0 v 0 l 3.969104,-3.661762"
     stroke="#323232"
     stroke-width="2"
     stroke-linecap="round"
     stroke-linejoin="round"
     id="path4"
     style="stroke:#58585a;stroke-width:2.62926;stroke-dasharray:none;stroke-opacity:1" /></svg>
